<?xml version="1.0" encoding="UTF-8"?>
<svg width="128" height="128" version="1.1" viewBox="0 0 33.867 33.867" xmlns="http://www.w3.org/2000/svg">
 <path d="m14.491 4.0117c-5.7139 0.036621-9.6323 3.4149-9.5246 7.1526 0.10564 3.6458 3.9102 4.4549 3.576 5.9702-0.27673 1.2548-4.9954 1.3501-5.0225 4.2303l5.168e-4 -5.16e-4c-0.00563 0.59777 0.19112 1.3155 0.67128 2.1885 3.4884 6.3437 21.661 8.9375 25.792 2.8443 5.8013-8.5578-5.9281-21.923-14.637-22.366-0.28943-0.014719-0.57476-0.020922-0.85577-0.01912zm-2.5988 6.5392c0.51012 0.01307 1.0344 0.1166 1.5296 0.31885 1.5848 0.64709 2.2673 2.0618 1.5245 3.1595-0.74306 1.0979-2.6304 1.4628-4.2153 0.81546-0.76093-0.31082-1.3488-0.81831-1.6345-1.4108-0.2859-0.59254-0.24626-1.2216 0.11059-1.7487 0.51095-0.75458 1.5629-1.1631 2.6851-1.1343z" style="fill:#2e63a2;stroke-width:.94649"/>
 <path d="m21.495 23.152a3.2755 2.7582 0 0 1 3.2755 2.7532 3.2755 2.7582 0 0 1-3.2638 2.7631 3.2755 2.7582 0 0 1-3.2872-2.7433 3.2755 2.7582 0 0 1 3.252-2.7729" style="fill:#009f00;stroke-width:.87646"/>
 <path d="m12.807 21.543a3.259 2.7443 0 0 1 3.259 2.7393 3.259 2.7443 0 0 1-3.2473 2.7492 3.259 2.7443 0 0 1-3.2706-2.7295 3.259 2.7443 0 0 1 3.2356-2.7589" style="fill:#bf0000;stroke-width:.87204"/>
 <path d="m26.121 16.416a3.292 2.772 0 0 1 3.292 2.767 3.292 2.772 0 0 1-3.2802 2.777 3.292 2.772 0 0 1-3.3037-2.7572 3.292 2.772 0 0 1 3.2684-2.7869" style="fill:#d4aa00;stroke-width:.88087"/>
 <path d="m22.12 9.3795a3.1766 2.6749 0 0 1 3.1766 2.67 3.1766 2.6749 0 0 1-3.1652 2.6796 3.1766 2.6749 0 0 1-3.1879-2.6605 3.1766 2.6749 0 0 1 3.1538-2.6892" style="fill:#00aaaa;stroke-width:.84998"/>
</svg>
