<?xml version="1.0" encoding="UTF-8"?>
<svg width="128" height="128" version="1.1" viewBox="0 0 33.867 33.867" xmlns="http://www.w3.org/2000/svg">
 <path d="m8.2282 8.4568a12.31 12.31 0 0 0-5.42e-5 17.41 12.31 12.31 0 0 0 0.69872 0.64053l-2.038 2.038 6.6962 2e-6 2e-6 -6.6962-1.9684 1.9684a8.5229 8.5229 0 0 1-0.71017-0.62908 8.5229 8.5229 0 0 1-1.34e-4 -12.054 8.5229 8.5229 0 0 1 12.054-1.34e-4 8.5229 8.5229 0 0 1 1.34e-4 12.054l2.6785 2.6785a12.31 12.31 0 0 0 5.4e-5 -17.41 12.31 12.31 0 0 0-17.41-5.48e-5z" style="fill:#2e63a2;stroke-linecap:round;stroke-linejoin:round;stroke-width:.47349"/>
</svg>
