<?xml version="1.0" encoding="UTF-8" standalone="no"?>
<svg
   width="128"
   height="128"
   version="1.1"
   viewBox="0 0 33.867 33.867"
   id="svg5"
   sodipodi:docname="style.svg"
   inkscape:version="1.3 (0e150ed6c4, 2023-07-21)"
   xmlns:inkscape="http://www.inkscape.org/namespaces/inkscape"
   xmlns:sodipodi="http://sodipodi.sourceforge.net/DTD/sodipodi-0.dtd"
   xmlns="http://www.w3.org/2000/svg"
   xmlns:svg="http://www.w3.org/2000/svg">
  <defs
     id="defs5" />
  <sodipodi:namedview
     id="namedview5"
     pagecolor="#ffffff"
     bordercolor="#666666"
     borderopacity="1.0"
     inkscape:showpageshadow="2"
     inkscape:pageopacity="0.0"
     inkscape:pagecheckerboard="0"
     inkscape:deskcolor="#d1d1d1"
     showgrid="true"
     inkscape:zoom="2.3847656"
     inkscape:cx="36.062244"
     inkscape:cy="72.334152"
     inkscape:window-width="1937"
     inkscape:window-height="851"
     inkscape:window-x="167"
     inkscape:window-y="278"
     inkscape:window-maximized="0"
     inkscape:current-layer="svg5">
    <inkscape:grid
       id="grid5"
       units="px"
       originx="0"
       originy="0"
       spacingx="0.26458594"
       spacingy="0.26458594"
       empcolor="#3f3fff"
       empopacity="0.25098039"
       color="#3f3fff"
       opacity="0.1254902"
       empspacing="4"
       dotted="false"
       gridanglex="30"
       gridanglez="30"
       visible="true" />
  </sodipodi:namedview>
  <path
     id="rect4"
     style="fill:#2e63a2;fill-opacity:1;stroke-width:0.161022;stroke-linejoin:round;paint-order:markers fill stroke"
     inkscape:label="segA"
     d="m 4.4293774,4.2333751 c -0.3231606,0 -0.5914965,0.1486445 -0.8216076,0.3739546 L 5.134885,6.217596 H 9.6819293 L 11.209045,4.6073297 C 10.978933,4.3820196 10.701023,4.2333751 10.387437,4.2333751 Z M 3.5295995,4.6897737 C 3.3159702,4.9324661 3.1750315,5.2154753 3.1750315,5.5563045 v 5.5397465 l 0.9406772,0.99211 0.9406762,-0.99211 V 6.300387 Z m 7.7579445,0 -1.5271157,1.6106133 v 4.795664 l 0.9406777,0.99211 0.940675,-0.99211 V 5.5563045 c 0,-0.3218258 -0.140608,-0.6238384 -0.354237,-0.8665308 z m -6.152659,6.4890693 -0.9406772,0.99211 0.9406772,0.99211 h 4.5470443 l 0.9406767,-0.99211 -0.9406767,-0.99211 z m -1.0191763,1.074902 -0.9406772,0.992111 v 5.539746 c 0,0.312324 0.1409387,0.623838 0.354568,0.866531 l 1.5267854,-1.610614 v -4.795663 z m 6.5853973,0 -0.9406777,0.992111 v 4.795663 l 1.5205187,1.603657 c 0.217268,-0.247585 0.360834,-0.523304 0.360834,-0.859574 v -5.539746 z m -5.566221,5.870218 -1.5271152,1.610615 c 0.2301111,0.22531 0.4624105,0.373954 0.8216076,0.373954 h 5.9580596 c 0.313586,0 0.586124,-0.153602 0.81534,-0.380216 L 9.6819293,18.123964 Z" />
  <path
     id="path736"
     style="fill:#2e63a2;fill-opacity:1;stroke-width:0.161338;stroke-linecap:round;stroke-linejoin:round"
     inkscape:label="segA"
     d="m 23.165969,13.696104 c -0.626687,0.0012 -0.94075,0.33257 -0.94075,0.996096 v 0.95459 h 1.842302 v -1.950686 z m 0.979948,0 v 1.99219 h 4.625355 v -1.99219 z m 4.70375,0 v 1.950686 h 1.842302 V 14.6922 c 0,-0.663411 -0.313583,-0.996096 -0.94075,-0.996096 z m -6.624448,2.033693 v 4.880281 l 0.94075,0.996094 0.94075,-0.996094 v -4.880281 z m 6.585251,0 v 4.880281 l 0.940749,0.996094 0.94075,-0.996094 v -4.880281 z m -4.648323,4.938969 -0.94075,0.996095 0.94075,0.996095 h 4.592894 l 0.94075,-0.996095 -0.94075,-0.996095 z m -1.936928,0.05869 v 1.87481 l 0.885322,-0.937405 z m 8.46675,0 -0.885321,0.937405 0.885321,0.937405 z m -7.526,0.996094 -0.94075,0.996095 v 4.880279 h 1.8815 v -4.880279 z m 6.58525,0 -0.940749,0.996095 v 4.880279 h 1.881499 v -4.880279 z m -7.526,5.917879 v 0.996094 c 0,0.664037 0.314719,0.969538 0.94075,0.954591 l 0.901552,-0.0021 v -1.948577 z m 1.920698,0 v 1.992188 h 4.625355 v -1.992188 z m 4.70375,0.04151 v 1.950685 h 0.901552 c 0.627501,9.41e-4 0.94075,-0.332032 0.94075,-0.996095 l -0.0019,-0.95459 z" />
  <path
     style="fill:#2e63a2;fill-opacity:1;stroke-width:1.05834;stroke-linejoin:round;paint-order:markers fill stroke"
     d="m 15.345985,8.4667491 3.175031,-3.1750313 v 1.5875157 h 6.350063 l 3.175031,3.1750315 v 2.64586 h -3.175031 v -2.64586 h -6.350063 v 1.587516 L 15.345985,8.4667491"
     id="path5" />
  <path
     style="fill:#2e63a2;fill-opacity:1;stroke-width:1.05834;stroke-linejoin:round;paint-order:markers fill stroke"
     d="m 18.521016,26.458595 -3.175031,3.175031 V 28.046111 H 8.9959221 L 5.8208907,24.871079 v -2.64586 h 3.1750314 v 2.64586 h 6.3500629 v -1.587516 l 3.175031,3.175032"
     id="path5-1" />
</svg>
